<svg xmlns="http://www.w3.org/2000/svg" viewBox="0 0 800 400" fill="none">
  <defs>
    <linearGradient id="bg1" x1="0" y1="0" x2="800" y2="400">
      <stop offset="0%" stop-color="#0f172a"/>
      <stop offset="100%" stop-color="#1e1b4b"/>
    </linearGradient>
    <linearGradient id="g1" x1="0" y1="0" x2="1" y2="1">
      <stop offset="0%" stop-color="#6366f1"/>
      <stop offset="100%" stop-color="#06b6d4"/>
    </linearGradient>
  </defs>
  <rect width="800" height="400" fill="url(#bg1)"/>
  <!-- Decorative circles -->
  <circle cx="650" cy="80" r="120" fill="#6366f1" opacity="0.08"/>
  <circle cx="150" cy="350" r="100" fill="#06b6d4" opacity="0.06"/>
  <!-- Neural network -->
  <g opacity="0.9">
    <circle cx="180" cy="130" r="18" fill="url(#g1)" opacity="0.9"/>
    <circle cx="180" cy="200" r="18" fill="url(#g1)" opacity="0.9"/>
    <circle cx="180" cy="270" r="18" fill="url(#g1)" opacity="0.9"/>
    <circle cx="380" cy="150" r="14" fill="#a78bfa" opacity="0.8"/>
    <circle cx="380" cy="220" r="14" fill="#a78bfa" opacity="0.8"/>
    <circle cx="560" cy="185" r="12" fill="#22d3ee" opacity="0.7"/>
    <line x1="198" y1="130" x2="366" y2="150" stroke="#818cf8" stroke-width="1.5" opacity="0.5"/>
    <line x1="198" y1="130" x2="366" y2="220" stroke="#818cf8" stroke-width="1" opacity="0.3"/>
    <line x1="198" y1="200" x2="366" y2="150" stroke="#818cf8" stroke-width="1" opacity="0.3"/>
    <line x1="198" y1="200" x2="366" y2="220" stroke="#818cf8" stroke-width="1.5" opacity="0.5"/>
    <line x1="198" y1="270" x2="366" y2="220" stroke="#818cf8" stroke-width="1" opacity="0.3"/>
    <line x1="394" y1="150" x2="548" y2="185" stroke="#a78bfa" stroke-width="1.5" opacity="0.4"/>
    <line x1="394" y1="220" x2="548" y2="185" stroke="#a78bfa" stroke-width="1.5" opacity="0.4"/>
  </g>
  <!-- Compression arrow -->
  <path d="M610 155 L680 185 L610 215" stroke="#34d399" stroke-width="3" fill="none" stroke-linecap="round" stroke-linejoin="round"/>
  <text x="625" y="192" font-family="system-ui,sans-serif" font-size="13" fill="#34d399" font-weight="700" letter-spacing="2">LITE</text>
  <!-- Title text -->
  <text x="400" y="340" font-family="system-ui,sans-serif" font-size="20" fill="white" text-anchor="middle" font-weight="700" opacity="0.9">모델 경량화 해커톤</text>
  <text x="400" y="365" font-family="system-ui,sans-serif" font-size="13" fill="#94a3b8" text-anchor="middle">LLM · Compression · vLLM</text>
</svg>
