<svg xmlns="http://www.w3.org/2000/svg" viewBox="0 0 800 400" fill="none">
  <rect width="800" height="400" fill="#0f172a"/>
  <rect x="40" y="40" width="720" height="320" rx="24" fill="#1e293b" stroke="#334155" stroke-width="2"/>
  <circle cx="200" cy="120" r="20" fill="#3b82f6" opacity="0.8"/>
  <circle cx="200" cy="200" r="20" fill="#3b82f6" opacity="0.8"/>
  <circle cx="200" cy="280" r="20" fill="#3b82f6" opacity="0.8"/>
  <circle cx="400" cy="140" r="16" fill="#8b5cf6" opacity="0.7"/>
  <circle cx="400" cy="220" r="16" fill="#8b5cf6" opacity="0.7"/>
  <circle cx="400" cy="300" r="12" fill="#8b5cf6" opacity="0.4"/>
  <circle cx="560" cy="180" r="14" fill="#06b6d4" opacity="0.6"/>
  <circle cx="560" cy="260" r="10" fill="#06b6d4" opacity="0.3"/>
  <line x1="220" y1="120" x2="384" y2="140" stroke="#3b82f6" stroke-width="1.5" opacity="0.4"/>
  <line x1="220" y1="120" x2="384" y2="220" stroke="#3b82f6" stroke-width="1.5" opacity="0.3"/>
  <line x1="220" y1="200" x2="384" y2="140" stroke="#3b82f6" stroke-width="1.5" opacity="0.3"/>
  <line x1="220" y1="200" x2="384" y2="220" stroke="#3b82f6" stroke-width="1.5" opacity="0.4"/>
  <line x1="220" y1="280" x2="384" y2="220" stroke="#3b82f6" stroke-width="1.5" opacity="0.3"/>
  <line x1="220" y1="280" x2="384" y2="300" stroke="#3b82f6" stroke-width="1.5" opacity="0.4"/>
  <line x1="416" y1="140" x2="546" y2="180" stroke="#8b5cf6" stroke-width="1.5" opacity="0.3"/>
  <line x1="416" y1="220" x2="546" y2="180" stroke="#8b5cf6" stroke-width="1.5" opacity="0.3"/>
  <path d="M620 160 L700 200 L620 240" stroke="#22c55e" stroke-width="3" fill="none" stroke-linecap="round"/>
  <text x="640" y="205" font-family="monospace" font-size="14" fill="#22c55e" font-weight="bold">LITE</text>
  <text x="400" y="70" font-family="sans-serif" font-size="18" fill="#94a3b8" text-anchor="middle" font-weight="600">Model Compression</text>
  <circle cx="400" cy="300" r="12" stroke="#ef4444" stroke-width="2" stroke-dasharray="4 4" fill="none" opacity="0.6"/>
  <line x1="392" y1="292" x2="408" y2="308" stroke="#ef4444" stroke-width="2" opacity="0.6"/>
  <circle cx="560" cy="260" r="10" stroke="#ef4444" stroke-width="2" stroke-dasharray="4 4" fill="none" opacity="0.6"/>
  <line x1="553" y1="253" x2="567" y2="267" stroke="#ef4444" stroke-width="2" opacity="0.6"/>
</svg>
