<svg xmlns="http://www.w3.org/2000/svg" viewBox="0 0 800 400" fill="none">
  <defs>
    <linearGradient id="bg3" x1="0" y1="0" x2="800" y2="400">
      <stop offset="0%" stop-color="#0a0f1f"/>
      <stop offset="100%" stop-color="#1a0a0a"/>
    </linearGradient>
  </defs>
  <rect width="800" height="400" fill="url(#bg3)"/>
  <circle cx="200" cy="100" r="180" fill="#dc2626" opacity="0.04"/>
  <circle cx="600" cy="300" r="150" fill="#2563eb" opacity="0.05"/>
  <!-- Document stack -->
  <rect x="120" y="100" width="180" height="220" rx="10" fill="#1e293b" stroke="#334155" transform="rotate(-5 210 210)" opacity="0.6"/>
  <rect x="130" y="90" width="180" height="220" rx="10" fill="#1e293b" stroke="#475569" transform="rotate(-2 220 200)" opacity="0.8"/>
  <rect x="140" y="80" width="180" height="220" rx="10" fill="#0f2942" stroke="#2563eb" stroke-width="1.5"/>
  <!-- Document lines -->
  <rect x="165" y="115" width="130" height="6" rx="3" fill="#3b82f6" opacity="0.6"/>
  <rect x="165" y="135" width="90" height="4" rx="2" fill="#64748b" opacity="0.35"/>
  <rect x="165" y="150" width="120" height="4" rx="2" fill="#64748b" opacity="0.3"/>
  <rect x="165" y="165" width="70" height="4" rx="2" fill="#64748b" opacity="0.25"/>
  <rect x="165" y="185" width="110" height="4" rx="2" fill="#64748b" opacity="0.35"/>
  <rect x="165" y="200" width="80" height="4" rx="2" fill="#64748b" opacity="0.25"/>
  <!-- URGENT stamp -->
  <g transform="rotate(-12 230 260)">
    <rect x="170" y="240" width="120" height="36" rx="4" fill="none" stroke="#ef4444" stroke-width="2.5" opacity="0.8"/>
    <text x="230" y="264" font-family="system-ui,sans-serif" font-size="15" fill="#ef4444" text-anchor="middle" font-weight="800" letter-spacing="3" opacity="0.85">URGENT</text>
  </g>
  <!-- Arrow -->
  <path d="M380 200 L480 200" stroke="#f59e0b" stroke-width="2.5" stroke-dasharray="8 5" opacity="0.7"/>
  <path d="M470 188 L492 200 L470 212" fill="#f59e0b" opacity="0.7"/>
  <!-- Developer with laptop -->
  <rect x="520" y="190" width="200" height="120" rx="10" fill="#0f172a" stroke="#1e293b" stroke-width="1.5"/>
  <rect x="540" y="210" width="70" height="5" rx="2.5" fill="#22c55e" opacity="0.6"/>
  <rect x="540" y="224" width="130" height="4" rx="2" fill="#64748b" opacity="0.3"/>
  <rect x="540" y="238" width="90" height="4" rx="2" fill="#3b82f6" opacity="0.35"/>
  <rect x="540" y="252" width="150" height="4" rx="2" fill="#64748b" opacity="0.25"/>
  <rect x="540" y="266" width="110" height="4" rx="2" fill="#22c55e" opacity="0.4"/>
  <rect x="540" y="280" width="70" height="4" rx="2" fill="#64748b" opacity="0.25"/>
  <!-- Question marks -->
  <text x="550" y="170" font-family="system-ui,sans-serif" font-size="28" fill="#f59e0b" font-weight="800" opacity="0.7">?</text>
  <text x="590" y="155" font-family="system-ui,sans-serif" font-size="20" fill="#f59e0b" font-weight="700" opacity="0.4">?</text>
  <text x="630" y="175" font-family="system-ui,sans-serif" font-size="16" fill="#f59e0b" font-weight="700" opacity="0.3">?</text>
  <!-- Title -->
  <text x="400" y="365" font-family="system-ui,sans-serif" font-size="20" fill="white" text-anchor="middle" font-weight="700" opacity="0.9">긴급 인수인계 해커톤</text>
  <text x="400" y="388" font-family="system-ui,sans-serif" font-size="13" fill="#94a3b8" text-anchor="middle">VibeCoding · Web · Vercel · Handover</text>
</svg>
