<svg xmlns="http://www.w3.org/2000/svg" viewBox="0 0 800 400" fill="none">
  <rect width="800" height="400" fill="#0a0f1f"/>
  <rect x="40" y="40" width="720" height="320" rx="24" fill="#111827" stroke="#1f2937" stroke-width="2"/>
  <rect x="100" y="140" width="180" height="220" rx="8" fill="#1f2937" stroke="#374151" transform="rotate(-6 190 250)"/>
  <rect x="110" y="130" width="180" height="220" rx="8" fill="#1e293b" stroke="#334155" transform="rotate(-3 200 240)"/>
  <rect x="120" y="120" width="180" height="220" rx="8" fill="#1e3a5f" stroke="#2563eb" stroke-width="1.5"/>
  <rect x="145" y="155" width="130" height="6" rx="3" fill="#3b82f6" opacity="0.5"/>
  <rect x="145" y="175" width="100" height="4" rx="2" fill="#64748b" opacity="0.4"/>
  <rect x="145" y="190" width="120" height="4" rx="2" fill="#64748b" opacity="0.3"/>
  <rect x="145" y="205" width="80" height="4" rx="2" fill="#64748b" opacity="0.3"/>
  <rect x="145" y="225" width="110" height="4" rx="2" fill="#64748b" opacity="0.4"/>
  <rect x="145" y="240" width="90" height="4" rx="2" fill="#64748b" opacity="0.3"/>
  <rect x="150" y="270" width="120" height="40" rx="4" fill="none" stroke="#ef4444" stroke-width="2.5" transform="rotate(-8 210 290)" opacity="0.8"/>
  <text x="210" y="295" font-family="monospace" font-size="14" fill="#ef4444" text-anchor="middle" font-weight="bold" transform="rotate(-8 210 295)" opacity="0.8">URGENT</text>
  <path d="M360 200 L460 200" stroke="#f59e0b" stroke-width="3" stroke-dasharray="8 6"/>
  <path d="M450 188 L470 200 L450 212" fill="#f59e0b"/>
  <circle cx="560" cy="150" r="28" fill="#1f2937" stroke="#3b82f6" stroke-width="2"/>
  <circle cx="560" cy="142" r="12" fill="#3b82f6" opacity="0.6"/>
  <path d="M536 170 Q548 185 560 185 Q572 185 584 170" fill="#3b82f6" opacity="0.4"/>
  <text x="530" y="120" font-family="sans-serif" font-size="20" fill="#f59e0b" font-weight="bold">?</text>
  <text x="580" y="130" font-family="sans-serif" font-size="16" fill="#f59e0b" font-weight="bold" opacity="0.6">?</text>
  <rect x="500" y="200" width="220" height="130" rx="8" fill="#0f172a" stroke="#1e293b"/>
  <rect x="520" y="220" width="80" height="6" rx="3" fill="#22c55e" opacity="0.5"/>
  <rect x="520" y="236" width="140" height="4" rx="2" fill="#64748b" opacity="0.3"/>
  <rect x="520" y="250" width="100" height="4" rx="2" fill="#3b82f6" opacity="0.3"/>
  <rect x="520" y="264" width="160" height="4" rx="2" fill="#64748b" opacity="0.3"/>
  <rect x="520" y="278" width="120" height="4" rx="2" fill="#22c55e" opacity="0.4"/>
  <rect x="520" y="292" width="80" height="4" rx="2" fill="#64748b" opacity="0.3"/>
  <rect x="600" y="278" width="2" height="12" fill="#22c55e"/>
  <text x="400" y="75" font-family="sans-serif" font-size="18" fill="#f59e0b" text-anchor="middle" font-weight="600">Emergency Handover</text>
</svg>
