<svg xmlns="http://www.w3.org/2000/svg" viewBox="0 0 800 400" fill="none">
  <rect width="800" height="400" fill="#0c0a1a"/>
  <rect x="40" y="40" width="720" height="320" rx="24" fill="#1a1630" stroke="#2d2654" stroke-width="2"/>
  <rect x="80" y="80" width="380" height="260" rx="12" fill="#13111c" stroke="#2d2654"/>
  <circle cx="100" cy="98" r="5" fill="#ef4444"/>
  <circle cx="116" cy="98" r="5" fill="#eab308"/>
  <circle cx="132" cy="98" r="5" fill="#22c55e"/>
  <rect x="100" y="120" width="120" height="8" rx="4" fill="#c084fc" opacity="0.6"/>
  <rect x="100" y="140" width="200" height="8" rx="4" fill="#67e8f9" opacity="0.4"/>
  <rect x="120" y="160" width="160" height="8" rx="4" fill="#a78bfa" opacity="0.3"/>
  <rect x="120" y="180" width="240" height="8" rx="4" fill="#86efac" opacity="0.4"/>
  <rect x="120" y="200" width="180" height="8" rx="4" fill="#67e8f9" opacity="0.3"/>
  <rect x="100" y="220" width="140" height="8" rx="4" fill="#c084fc" opacity="0.5"/>
  <rect x="100" y="240" width="280" height="8" rx="4" fill="#fbbf24" opacity="0.3"/>
  <rect x="100" y="260" width="100" height="8" rx="4" fill="#a78bfa" opacity="0.4"/>
  <g transform="translate(560, 160)">
    <path d="M0 -40 L8 -8 L40 0 L8 8 L0 40 L-8 8 L-40 0 L-8 -8Z" fill="#c084fc" opacity="0.8"/>
    <path d="M40 -20 L44 -8 L56 -4 L44 0 L40 12 L36 0 L24 -4 L36 -8Z" fill="#e879f9" opacity="0.6"/>
  </g>
  <path d="M520 200 L480 200" stroke="#c084fc" stroke-width="2" stroke-dasharray="6 4" opacity="0.5"/>
  <g transform="translate(620, 260)">
    <circle cx="0" cy="-10" r="24" fill="#eab308" opacity="0.2"/>
    <path d="M-10 -20 Q-10 -40 0 -40 Q10 -40 10 -20 L8 0 L-8 0Z" fill="#eab308" opacity="0.6"/>
    <rect x="-6" y="2" width="12" height="4" rx="2" fill="#eab308" opacity="0.5"/>
    <rect x="-4" y="8" width="8" height="4" rx="2" fill="#eab308" opacity="0.4"/>
  </g>
  <text x="620" y="120" font-family="sans-serif" font-size="18" fill="#a78bfa" text-anchor="middle" font-weight="600">Vibe Coding</text>
  <text x="620" y="145" font-family="sans-serif" font-size="13" fill="#6b7280" text-anchor="middle">AI-Powered Ideas</text>
</svg>
