<svg xmlns="http://www.w3.org/2000/svg" viewBox="0 0 800 400" fill="none">
  <defs>
    <linearGradient id="bg2" x1="0" y1="0" x2="800" y2="400">
      <stop offset="0%" stop-color="#0f0720"/>
      <stop offset="100%" stop-color="#1a0a3e"/>
    </linearGradient>
  </defs>
  <rect width="800" height="400" fill="url(#bg2)"/>
  <circle cx="600" cy="100" r="150" fill="#7c3aed" opacity="0.06"/>
  <circle cx="200" cy="300" r="120" fill="#ec4899" opacity="0.05"/>
  <!-- Code editor -->
  <rect x="100" y="70" width="360" height="260" rx="16" fill="#1e1145" stroke="#2d2066" stroke-width="1.5"/>
  <circle cx="122" cy="90" r="5" fill="#ef4444" opacity="0.8"/>
  <circle cx="138" cy="90" r="5" fill="#eab308" opacity="0.8"/>
  <circle cx="154" cy="90" r="5" fill="#22c55e" opacity="0.8"/>
  <rect x="122" y="112" width="100" height="7" rx="3.5" fill="#c084fc" opacity="0.7"/>
  <rect x="122" y="130" width="180" height="7" rx="3.5" fill="#67e8f9" opacity="0.4"/>
  <rect x="140" y="148" width="140" height="7" rx="3.5" fill="#a78bfa" opacity="0.35"/>
  <rect x="140" y="166" width="220" height="7" rx="3.5" fill="#86efac" opacity="0.45"/>
  <rect x="140" y="184" width="160" height="7" rx="3.5" fill="#67e8f9" opacity="0.3"/>
  <rect x="122" y="202" width="120" height="7" rx="3.5" fill="#c084fc" opacity="0.6"/>
  <rect x="122" y="220" width="260" height="7" rx="3.5" fill="#fbbf24" opacity="0.3"/>
  <rect x="122" y="238" width="90" height="7" rx="3.5" fill="#a78bfa" opacity="0.45"/>
  <!-- AI sparkle -->
  <g transform="translate(560, 150)">
    <path d="M0 -50 L10 -10 L50 0 L10 10 L0 50 L-10 10 L-50 0 L-10 -10Z" fill="#c084fc" opacity="0.7"/>
    <path d="M50 -25 L55 -10 L70 -5 L55 0 L50 15 L45 0 L30 -5 L45 -10Z" fill="#e879f9" opacity="0.5"/>
    <path d="M-40 30 L-36 40 L-26 43 L-36 46 L-40 56 L-44 46 L-54 43 L-44 40Z" fill="#818cf8" opacity="0.4"/>
  </g>
  <!-- Title -->
  <text x="560" y="260" font-family="system-ui,sans-serif" font-size="20" fill="white" text-anchor="middle" font-weight="700" opacity="0.9">바이브 코딩 아이디어</text>
  <text x="560" y="285" font-family="system-ui,sans-serif" font-size="13" fill="#94a3b8" text-anchor="middle">GenAI · Workflow · Idea</text>
  <!-- Lightbulb -->
  <g transform="translate(680, 120)" opacity="0.6">
    <circle cx="0" cy="0" r="20" fill="#eab308" opacity="0.15"/>
    <path d="M-8 -16 Q-8 -30 0 -30 Q8 -30 8 -16 L6 0 L-6 0Z" fill="#eab308" opacity="0.5"/>
    <rect x="-5" y="2" width="10" height="3" rx="1.5" fill="#eab308" opacity="0.4"/>
  </g>
</svg>
